<svg width="55" height="23" viewBox="0 0 55 23" fill="none" xmlns="http://www.w3.org/2000/svg">
   <path d="M10.7791 4.79297C9.44268 4.79297 8.36456 5.60156 7.66827 5.60156C6.93829 5.60156 5.96124 4.83789 4.8045 4.83789C2.60332 4.83789 0.368462 6.66846 0.368462 10.0938C0.368462 12.2388 1.19952 14.4961 2.22149 15.9673C3.08624 17.1914 3.86114 18.2021 4.96172 18.2021C6.05108 18.2021 6.53399 17.4834 7.89288 17.4834C9.26299 17.4834 9.57745 18.1797 10.7791 18.1797C11.9808 18.1797 12.7781 17.0903 13.5306 16.0122C14.3616 14.7656 14.721 13.5527 14.7322 13.4966C14.6648 13.4741 12.3738 12.542 12.3738 9.91406C12.3738 7.64551 14.1707 6.63477 14.2718 6.55615C13.0926 4.83789 11.2845 4.79297 10.7791 4.79297ZM10.1614 3.34424C10.7005 2.68164 11.0823 1.7832 11.0823 0.873535C11.0823 0.75 11.0711 0.626465 11.0486 0.525391C10.1727 0.559082 9.09454 1.10938 8.4544 1.86182C7.96026 2.43457 7.48858 3.34424 7.48858 4.25391C7.48858 4.38867 7.51104 4.53467 7.52227 4.57959C7.57842 4.59082 7.66827 4.60205 7.75811 4.60205C8.55547 4.60205 9.56622 4.06299 10.1614 3.34424ZM19.1467 1.79443V18H22.0442V12.688H25.5593C28.8386 12.688 31.1297 10.4868 31.1297 7.2749C31.1297 4.00684 28.9173 1.79443 25.6829 1.79443H19.1467ZM22.0442 4.22021H24.9192C27.0081 4.22021 28.1873 5.28711 28.1873 7.2749C28.1873 9.20654 26.9744 10.2847 24.908 10.2847H22.0442V4.22021ZM36.5661 16.0122C35.3308 16.0122 34.4436 15.3945 34.4436 14.3613C34.4436 13.3618 35.1736 12.8003 36.7346 12.6992L39.5085 12.5195V13.4966C39.5085 14.9229 38.2507 16.0122 36.5661 16.0122ZM35.7463 18.2021C37.3523 18.2021 38.6999 17.5059 39.385 16.3154H39.5759V18H42.26V9.61084C42.26 7.00537 40.4856 5.4668 37.3298 5.4668C34.4099 5.4668 32.3772 6.84814 32.1526 9.01562H34.7805C35.0388 8.18457 35.9148 7.73535 37.195 7.73535C38.6999 7.73535 39.5085 8.40918 39.5085 9.61084V10.644L36.3415 10.835C33.3542 11.0146 31.6809 12.2949 31.6809 14.5186C31.6809 16.7646 33.3767 18.2021 35.7463 18.2021ZM45.3605 22.4585C48.112 22.4585 49.426 21.4478 50.4704 18.3931L54.9064 5.71387H51.9641L49.1003 15.3047H48.9094L46.0344 5.71387H42.9797L47.3708 18.0562L47.2248 18.5952C46.8654 19.7295 46.2028 20.1787 45.0236 20.1787C44.8327 20.1787 44.4172 20.1675 44.26 20.1338V22.4136C44.4396 22.4473 45.1921 22.4585 45.3605 22.4585Z" fill="white" />
</svg>
