<svg width="119" height="32" viewBox="0 0 119 32" fill="none" xmlns="http://www.w3.org/2000/svg">
  <path d="M43.3709 19.1014C45.0979 19.1 46.7674 18.4815 48.0784 17.3573C49.3894 16.2332 50.2555 14.6776 50.5204 12.9711C51.079 9.41391 48.2996 6.30863 44.3614 6.30863H38.014C37.895 6.3071 37.7794 6.34866 37.6886 6.42566C37.5978 6.50265 37.5378 6.60989 37.5199 6.72759L34.691 24.6832C34.6808 24.7488 34.6849 24.8158 34.703 24.8797C34.7211 24.9436 34.7528 25.0028 34.7959 25.0533C34.8391 25.1037 34.8926 25.1443 34.9529 25.1721C35.0131 25.2 35.0787 25.2145 35.1451 25.2146H38.5039C38.6227 25.2158 38.7379 25.1741 38.8285 25.0971C38.919 25.0201 38.9787 24.9131 38.9966 24.7957L39.8288 19.5211C39.8466 19.4034 39.9063 19.2961 39.997 19.219C40.0877 19.1419 40.2032 19.1001 40.3222 19.1014H43.3709ZM46.1819 12.8092C45.9742 14.1241 44.9579 15.0931 43.0128 15.0931H40.5249L41.279 10.3091H43.7218C45.7343 10.3134 46.3881 11.5001 46.1819 12.8128V12.8092ZM65.0728 11.9642H61.8837C61.7647 11.9628 61.6492 12.0044 61.5584 12.0814C61.4676 12.1583 61.4077 12.2655 61.3896 12.3831L61.2864 13.0449C61.2864 13.0449 58.8107 10.3413 54.4292 12.1676C51.9155 13.2139 50.7094 15.376 50.1967 16.9587C50.1967 16.9587 48.566 21.7699 52.2521 24.419C52.2521 24.419 55.6689 26.9656 59.5175 24.2614L59.4509 24.6832C59.4406 24.7488 59.4446 24.8159 59.4626 24.8798C59.4807 24.9438 59.5124 25.003 59.5555 25.0535C59.5987 25.104 59.6523 25.1446 59.7126 25.1724C59.7729 25.2002 59.8385 25.2146 59.905 25.2146H63.0926C63.2117 25.2161 63.3273 25.1746 63.4181 25.0976C63.5089 25.0206 63.5688 24.9134 63.5868 24.7957L65.5261 12.4956C65.5364 12.43 65.5323 12.3629 65.5142 12.2991C65.4961 12.2352 65.4644 12.176 65.4212 12.1255C65.3781 12.075 65.3246 12.0345 65.2643 12.0066C65.204 11.9788 65.1392 11.9643 65.0728 11.9642ZM60.3841 18.762C60.2593 19.619 59.8279 20.4017 59.17 20.9648C58.512 21.528 57.6721 21.8333 56.8061 21.8243C56.467 21.8282 56.1294 21.7786 55.8057 21.6775C54.4306 21.2363 53.6464 19.9143 53.872 18.482C53.9969 17.6226 54.4301 16.838 55.0908 16.2744C55.7514 15.7108 56.5945 15.4068 57.4629 15.4189C57.8023 15.4154 58.1404 15.4655 58.4641 15.5665C59.8341 16.0062 60.6133 17.3282 60.3877 18.762H60.3841Z" fill="#003087" />
  <path d="M89.2862 19.1014C91.0141 19.101 92.6849 18.4829 93.9971 17.3587C95.3093 16.2346 96.1765 14.6784 96.4421 12.9711C97 9.4139 94.2213 6.30862 90.2817 6.30862H83.9365C83.8176 6.30741 83.7023 6.3491 83.6116 6.42606C83.521 6.50301 83.4611 6.61006 83.4431 6.72757L80.6056 24.6882C80.5894 24.7871 80.6062 24.8887 80.6535 24.9771C80.7007 25.0655 80.7758 25.1359 80.867 25.1774C80.9274 25.2055 80.9931 25.2202 81.0597 25.2203H84.4192C84.5382 25.2215 84.6536 25.1797 84.7443 25.1026C84.8349 25.0255 84.8947 24.9183 84.9126 24.8007L85.7455 19.5261C85.7632 19.4083 85.8229 19.3009 85.9136 19.2238C86.0043 19.1466 86.1199 19.105 86.239 19.1064L89.2862 19.1014ZM92.0972 12.8092C91.8895 14.1241 90.8732 15.0931 88.9274 15.0931H86.4402L87.195 10.3091H89.6379C91.6489 10.3134 92.3041 11.5001 92.0972 12.8128V12.8092ZM110.987 11.9642H107.802C107.683 11.9629 107.568 12.0046 107.477 12.0816C107.386 12.1585 107.327 12.2656 107.308 12.3831L107.204 13.0448C107.204 13.0448 104.729 10.3413 100.347 12.1675C97.8343 13.2139 96.6276 15.376 96.1141 16.9587C96.1141 16.9587 94.4841 21.7699 98.1695 24.4189C98.1695 24.4189 101.587 26.9656 105.436 24.2614L105.369 24.6832C105.353 24.7821 105.37 24.8836 105.417 24.9721C105.464 25.0605 105.539 25.1309 105.63 25.1723C105.691 25.201 105.757 25.2153 105.823 25.2153H109.011C109.13 25.2171 109.246 25.1755 109.336 25.0983C109.427 25.0211 109.487 24.9135 109.504 24.7956L111.444 12.4955C111.454 12.4297 111.449 12.3626 111.431 12.2987C111.413 12.2348 111.381 12.1754 111.338 12.1246C111.295 12.0736 111.241 12.0328 111.181 12.0051C111.12 11.9774 111.054 11.9634 110.987 11.9642ZM106.299 18.762C106.176 19.6196 105.745 20.4032 105.087 20.9666C104.429 21.53 103.588 21.8348 102.721 21.8243C102.382 21.8283 102.044 21.7787 101.72 21.6775C100.344 21.2363 99.5589 19.9143 99.7845 18.4819C99.9091 17.6248 100.34 16.842 100.998 16.2787C101.656 15.7154 102.496 15.4099 103.362 15.4189C103.703 15.4153 104.041 15.4648 104.364 15.5665C105.749 16.0062 106.53 17.3282 106.303 18.762H106.299Z" fill="#0070E0" />
  <path d="M76.7776 12.2685L72.934 18.7563L70.9839 12.3165C70.9533 12.2143 70.8904 12.1248 70.8047 12.0613C70.719 11.9978 70.615 11.9637 70.5083 11.9642H67.0407C66.9809 11.963 66.9218 11.9764 66.8683 12.0032C66.8148 12.0299 66.7686 12.0692 66.7337 12.1178C66.6988 12.1663 66.6761 12.2225 66.6677 12.2817C66.6593 12.3409 66.6654 12.4013 66.6855 12.4576L70.1803 23.3046L67.0199 28.4166C66.9842 28.4728 66.9643 28.5377 66.9624 28.6043C66.9605 28.6709 66.9766 28.7368 67.009 28.7951C67.0414 28.8533 67.089 28.9017 67.1466 28.9352C67.2042 28.9686 67.2698 28.9859 67.3365 28.9852H71.0727C71.1795 28.9858 71.2847 28.9584 71.3777 28.9059C71.4708 28.8534 71.5486 28.7776 71.6034 28.6859L81.3661 12.535C81.4012 12.4786 81.4206 12.4138 81.422 12.3474C81.4234 12.281 81.4069 12.2154 81.3742 12.1576C81.3415 12.0997 81.2939 12.0518 81.2362 12.0188C81.1786 11.9857 81.1131 11.9689 81.0467 11.9699H77.3119C77.2045 11.9687 77.0987 11.9956 77.0049 12.048C76.9112 12.1004 76.8328 12.1764 76.7776 12.2685Z" fill="#003087" />
  <path d="M114.574 6.72257L111.736 24.6832C111.72 24.7821 111.737 24.8836 111.784 24.9721C111.832 25.0605 111.907 25.1309 111.998 25.1723C112.058 25.201 112.124 25.2153 112.191 25.2153H115.549C115.668 25.2168 115.783 25.1751 115.874 25.098C115.965 25.0208 116.024 24.9134 116.042 24.7956L118.88 6.83501C118.891 6.7694 118.887 6.70227 118.869 6.63832C118.851 6.57436 118.819 6.51513 118.776 6.46475C118.732 6.41435 118.679 6.37386 118.618 6.34605C118.558 6.31825 118.493 6.30377 118.426 6.30361H115.067C114.948 6.3024 114.833 6.3441 114.742 6.42105C114.652 6.49801 114.592 6.60506 114.574 6.72257Z" fill="#0070E0" />
  <path d="M25.1692 14.5095C24.4487 18.6167 21.0978 21.7212 16.7006 21.7212H13.909C13.3396 21.7212 12.766 22.2483 12.675 22.8313L11.4525 30.5909C11.3816 31.0328 11.1747 31.1796 10.7271 31.1796H6.23672C5.78267 31.1796 5.67525 31.0278 5.74329 30.5802L6.25892 25.214L0.869084 24.9354C0.415753 24.9354 0.251752 24.6883 0.316207 24.2357L3.9937 0.917422C4.0646 0.47555 4.33961 0.285767 4.78578 0.285767H14.1124C18.602 0.285767 21.4423 3.30797 21.7896 7.22681C24.4609 9.03154 25.7099 11.4328 25.1699 14.5088L25.1692 14.5095Z" fill="#001C64" />
  <path d="M7.62656 16.5254L6.26084 25.2146L5.39715 30.666C5.38111 30.7711 5.38789 30.8785 5.41702 30.9807C5.44616 31.083 5.49698 31.1777 5.56601 31.2586C5.63505 31.3395 5.72068 31.4045 5.8171 31.4493C5.91352 31.4941 6.01845 31.5176 6.12477 31.5183H10.8672C11.0837 31.518 11.2929 31.4406 11.4574 31.2998C11.6219 31.1591 11.7308 30.9644 11.7646 30.7505L13.0128 22.8298C13.0467 22.6161 13.1557 22.4215 13.3202 22.2809C13.4846 22.1403 13.6938 22.063 13.9102 22.0628H16.7018C18.829 22.06 20.8852 21.2974 22.4998 19.9125C24.1144 18.5275 25.1811 16.6114 25.5077 14.5094C25.9911 11.4249 24.4392 8.61682 21.7829 7.22961C21.7769 7.55825 21.7482 7.88608 21.697 8.21076C21.3692 10.3116 20.3021 12.2264 18.6878 13.6103C17.0735 14.9942 15.0181 15.7562 12.8918 15.7591H8.5232C8.30699 15.7592 8.0979 15.8364 7.93354 15.9769C7.76918 16.1173 7.66033 16.3118 7.62656 16.5254Z" fill="#0070E0" />
  <path d="M6.25996 25.2147H0.737632C0.63109 25.2141 0.525911 25.1907 0.429263 25.1458C0.332616 25.101 0.246771 25.0358 0.177579 24.9548C0.108387 24.8738 0.057474 24.7788 0.0283099 24.6763C-0.00085425 24.5739 -0.00758403 24.4663 0.00857891 24.361L3.72976 0.767726C3.76321 0.553907 3.87193 0.359065 4.03632 0.218307C4.20072 0.0775484 4.40997 0.000129748 4.62639 0H14.1084C18.598 0 21.8623 3.26713 21.7856 7.22536C20.5907 6.60888 19.2636 6.29254 17.9191 6.30366H10.0141C9.7976 6.30372 9.58824 6.38098 9.42362 6.52157C9.25901 6.66217 9.14994 6.85687 9.11602 7.07067L7.6264 16.5255L6.25996 25.2147Z" fill="#003087" />
</svg>
