<svg width="37" height="15" viewBox="0 0 37 15" fill="none" xmlns="http://www.w3.org/2000/svg">
<path fill-rule="evenodd" clip-rule="evenodd" d="M7.04254 1.93387C6.6173 2.44053 5.93692 2.84015 5.25655 2.78306C5.1715 2.098 5.5046 1.37012 5.8944 0.92055C6.31964 0.399619 7.0638 0.0285442 7.66622 0C7.73709 0.713604 7.46069 1.41294 7.04254 1.93387ZM7.66018 2.91863C7.06078 2.8839 6.51385 3.10014 6.07209 3.2748C5.7878 3.3872 5.54706 3.48238 5.36391 3.48238C5.15837 3.48238 4.90769 3.38211 4.62624 3.26953C4.25744 3.12201 3.8358 2.95336 3.39365 2.96145C2.38017 2.97572 1.43756 3.55374 0.920189 4.47429C-0.142901 6.31539 0.643785 9.04135 1.67144 10.5399C2.17464 11.2821 2.77705 12.0956 3.57083 12.067C3.92004 12.0538 4.17124 11.9464 4.43122 11.8354C4.73051 11.7075 5.04143 11.5746 5.52691 11.5746C5.99556 11.5746 6.29288 11.704 6.5783 11.8282C6.84968 11.9463 7.11029 12.0597 7.49717 12.0528C8.3193 12.0385 8.83667 11.3106 9.33986 10.5685C9.88289 9.77194 10.1215 8.99457 10.1577 8.8766L10.162 8.86295C10.1611 8.86208 10.1544 8.85898 10.1426 8.85353C9.96104 8.76985 8.57357 8.1303 8.56026 6.41529C8.5469 4.97579 9.66077 4.24645 9.83611 4.13164L9.83617 4.1316L9.84998 4.12252L9.85723 4.11749C9.14851 3.06135 8.04289 2.94718 7.66018 2.91863ZM13.3535 11.9743V0.849228H17.4996C19.6399 0.849228 21.1353 2.33352 21.1353 4.50288C21.1353 6.67223 19.6116 8.1708 17.4429 8.1708H15.0686V11.9743H13.3535ZM15.0674 2.30492H17.0447C18.5331 2.30492 19.3835 3.10415 19.3835 4.50995C19.3835 5.91575 18.5331 6.72212 17.0376 6.72212H15.0674V2.30492ZM26.7941 10.6398C26.3406 11.5104 25.3412 12.0598 24.264 12.0598C22.6693 12.0598 21.5566 11.1036 21.5566 9.66213C21.5566 8.23492 22.6339 7.41428 24.6254 7.29297L26.7658 7.16452V6.55082C26.7658 5.64454 26.1775 5.15216 25.1286 5.15216C24.264 5.15216 23.6332 5.60173 23.5056 6.28679H21.9606C22.0102 4.84531 23.3568 3.79631 25.1782 3.79631C27.1414 3.79631 28.4171 4.83103 28.4171 6.43664V11.9742H26.8296V10.6398H26.7941ZM24.7269 10.7397C23.8126 10.7397 23.2314 10.2973 23.2314 9.61937C23.2314 8.92004 23.7913 8.51329 24.8615 8.44906L26.768 8.32775V8.95572C26.768 9.99758 25.8892 10.7397 24.7269 10.7397ZM33.6856 12.4096C32.9981 14.3578 32.2114 15 30.5388 15C30.4113 15 29.986 14.9857 29.8868 14.9572V13.6227C29.9931 13.637 30.2553 13.6513 30.39 13.6513C31.1483 13.6513 31.5736 13.3302 31.8358 12.4953L31.9917 12.0029L29.0859 3.90347H30.879L32.8989 10.4758H32.9343L34.9542 3.90347H36.6977L33.6856 12.4096Z" fill="white"/>
</svg>
