<svg width="151" height="56" viewBox="0 0 151 56" fill="none" xmlns="http://www.w3.org/2000/svg">
<path fill-rule="evenodd" clip-rule="evenodd" d="M1.65758 1.41336V2.82688L12.0068 2.79006L22.3561 2.7534L22.4023 1.3767L22.4485 0H12.053H1.65758V1.41336ZM44.1202 0.104943C44.0615 0.162528 44.0136 6.8887 44.0136 15.052V29.8941H54.163H64.3125V28.5736C64.3125 27.492 64.2649 27.2349 64.0491 27.1534C63.9041 27.0988 60.1821 27.0576 55.7777 27.0622C51.3733 27.0666 47.6437 27.0685 47.49 27.0661C47.2258 27.0622 47.2103 26.3112 47.2103 13.531V0H45.7185C44.8979 0 44.1787 0.0472 44.1202 0.104943ZM83.0131 1.08846C83.0131 1.68713 83.0567 2.28894 83.1101 2.42583C83.1965 2.64767 83.986 2.67473 90.3721 2.67473C96.1618 2.67473 97.7582 2.72052 98.6891 2.91326C100.983 3.38826 102.237 4.20846 102.999 5.73149C103.448 6.6302 103.513 6.9178 103.507 7.98298C103.496 10.1089 102.696 11.4822 100.93 12.4087C99.2432 13.2937 98.5265 13.3634 90.773 13.3955C86.9231 13.4116 83.602 13.4569 83.393 13.4962C83.0313 13.5642 83.0131 13.627 83.0131 14.8081V16.0484L90.805 16.0539C99.0955 16.0597 100.021 16.1253 101.948 16.8428C102.603 17.0865 103.16 17.4517 103.722 18.0051C104.747 19.0141 105.13 20.0323 105.115 21.7126C105.093 24.3061 103.92 25.8365 101.278 26.7233L100.035 27.1402L91.6494 27.1865C85.315 27.2214 83.2333 27.2791 83.1406 27.4226C83.0731 27.5273 83.0169 28.131 83.0154 28.7644L83.0131 29.9161L91.5242 29.8515C98.8881 29.7954 100.197 29.7498 101.234 29.5129C104.519 28.7627 106.562 27.4152 107.606 25.3113C108.824 22.8569 108.504 19.3637 106.867 17.2284C106.117 16.2504 104.529 15.1829 103.292 14.8251C102.776 14.6758 102.353 14.5181 102.353 14.4747C102.353 14.4313 102.685 14.2225 103.09 14.0107C105.71 12.6428 107.112 9.72518 106.666 6.56883C106.255 3.65841 104.212 1.59194 100.78 0.616764C99.0204 0.116746 96.9606 0 89.8921 0H83.0131V1.08846ZM129.176 1.411L129.125 2.822L139.309 2.82436C144.91 2.82562 149.603 2.78487 149.738 2.73389C149.932 2.66058 149.983 2.36305 149.983 1.32053V0H139.606H129.228L129.176 1.411ZM1.65758 14.711V16.0484H11.0878H20.518V14.711V13.3737H11.0878H1.65758V14.711ZM129.177 14.7114L129.125 16.0492L138.595 16.0487L148.065 16.0484V14.711V13.3737H138.647H129.229L129.177 14.7114ZM2.03079 27.1707C1.55193 27.2634 1.46738 27.5817 1.59157 28.8228L1.69881 29.8941H12.3933H23.0878L23.0416 28.5174L22.9954 27.1407L12.6861 27.1223C7.01601 27.1121 2.22115 27.1339 2.03079 27.1707ZM129.205 28.4843V29.8941H139.914H150.623V28.5751C150.623 27.3424 150.599 27.25 150.266 27.1641C150.069 27.1136 145.25 27.0729 139.557 27.0735L129.205 27.0748V28.4843ZM63.3966 41.2309C61.1649 41.6645 59.7631 43.0074 59.5661 44.9006C59.4479 46.0367 59.7423 46.9506 60.4517 47.6488C61.248 48.4327 62.047 48.7758 64.7121 49.4785C67.8279 50.3001 68.4682 50.7337 68.4682 52.023C68.4682 52.5065 68.3558 52.8153 68.0494 53.1737C67.3978 53.9362 66.682 54.1692 64.9518 54.1821C63.1876 54.1955 62.114 53.9253 60.7776 53.1319L59.8798 52.599L59.5413 53.3877C59.3161 53.9126 59.2545 54.2378 59.3573 54.3597C59.7048 54.7716 61.1551 55.398 62.4916 55.7131C65.276 56.3696 67.9938 55.8784 69.4491 54.4554C70.2577 53.6648 70.5436 52.9511 70.5451 51.7196C70.5463 50.7023 70.2492 50.0772 69.3987 49.3079C68.6429 48.6245 67.4956 48.1759 64.8059 47.5129C62.4982 46.944 61.5947 46.2857 61.5959 45.1739C61.5967 44.3388 62.116 43.6175 62.9982 43.2259C64.4365 42.5876 67.4551 42.8928 68.8962 43.8224C69.2472 44.0486 69.2715 44.0346 69.513 43.4662C69.6513 43.1408 69.7785 42.7391 69.7956 42.5737C69.8952 41.6146 65.8216 40.7597 63.3966 41.2309ZM0.378906 48.5386V55.8548H1.41575H2.45243L2.49463 50.6606L2.53666 45.4664L5.17392 49.8012C7.74613 54.029 7.82301 54.1349 8.28877 54.0907C8.73167 54.0487 8.95687 53.7299 11.4055 49.681L14.0447 45.3166L14.0867 50.5857L14.1289 55.8548H15.1656H16.2025V48.5386V41.2224H15.2606C14.5375 41.2224 14.2955 41.282 14.2188 41.4788C14.1638 41.6198 12.8117 43.933 11.2142 46.6194C9.12901 50.1258 8.27071 51.4403 8.17145 51.2797C8.09537 51.1567 6.69842 48.8435 5.06699 46.1392L2.10096 41.2224H1.23993H0.378906V48.5386ZM23.395 48.5386V55.8548H28.8373H34.2797L34.2317 54.9501L34.1838 54.0454L29.9082 54.0035L25.6327 53.9615V51.6041V49.2466H29.3088H32.985V48.3812V47.5159H29.3088H25.6327V45.3132V43.1104H29.7884H33.944V42.1664V41.2224H28.6695H23.395V48.5386ZM40.4972 48.5386V55.8548H41.5341H42.5709L42.6129 50.4266L42.655 44.9985L47.0546 50.3873L51.4542 55.7761L52.369 55.8233L53.2839 55.8705V48.5464V41.2224H52.2471H51.2103L51.1682 46.6757L51.1262 52.1288L46.6746 46.6757L42.2233 41.2224H41.3602H40.4972V48.5386ZM75.0214 41.3313C75.0214 41.3991 76.1177 44.6947 77.4575 48.6547L79.8937 55.8548H81.0538C81.6919 55.8548 82.2139 55.831 82.2139 55.8017C82.2139 55.6227 86.0897 44.5831 86.1862 44.4874C86.2514 44.4228 87.2001 46.9539 88.2943 50.1123L90.2836 55.8548H91.4047H92.5257L94.9619 48.6547C96.3018 44.6947 97.3981 41.3989 97.3981 41.3309C97.3981 41.263 96.9565 41.2285 96.4167 41.2542L95.4353 41.3011L93.4333 47.1672C92.3322 50.3937 91.3821 52.978 91.322 52.91C91.2618 52.8422 90.325 50.1846 89.2402 47.0045L87.2678 41.2224H86.297H85.3262L83.2549 47.1136C82.1156 50.3538 81.1583 52.98 81.1275 52.9498C81.0968 52.9195 80.1907 50.2861 79.1141 47.0978L77.1567 41.3011L76.089 41.2545C75.5018 41.229 75.0214 41.2635 75.0214 41.3313ZM103.152 48.5386V55.8548H108.594H114.037L113.989 54.9501L113.941 54.0454L109.581 54.0035L105.222 53.9617L105.266 51.6435L105.31 49.3253L109.026 49.2831L112.742 49.2408V48.3812V47.5217L109.026 47.4794L105.31 47.4372L105.265 45.2765L105.221 43.1156L109.421 43.0738L113.621 43.0318L113.669 42.1271L113.717 41.2224H108.435H103.152V48.5386ZM121.373 48.3965C119.571 52.337 118.073 55.6272 118.043 55.708C118.014 55.7898 118.474 55.8535 119.082 55.8519L120.174 55.8491L120.96 54.0399L121.745 52.2306L125.733 52.2727L129.721 52.3147L130.522 54.0847L131.323 55.8548H132.413H133.503L133.119 55.0007C132.515 53.6564 127.354 42.4687 127.035 41.8124L126.748 41.2224L125.699 41.2271L124.65 41.232L121.373 48.3965ZM138.475 48.5243V55.8548L139.554 55.8551L140.633 55.8552L140.585 53.6605L140.537 51.4657L142.886 51.4182L145.235 51.3706L146.843 53.6127L148.45 55.8548H149.537C150.134 55.8548 150.623 55.8162 150.623 55.7692C150.623 55.7221 149.868 54.6278 148.945 53.3374C148.022 52.0469 147.266 50.9601 147.266 50.9225C147.266 50.8849 147.433 50.8127 147.638 50.7624C148.315 50.5951 149.424 49.6143 149.907 48.7555C150.346 47.9748 150.383 47.7873 150.383 46.3358C150.383 44.8669 150.35 44.705 149.887 43.8971C149.305 42.8813 148.435 42.1747 147.152 41.6766C146.299 41.3459 145.925 41.313 142.351 41.2559L138.475 41.1937V48.5243ZM140.553 46.3358V49.5613L143.151 49.5597C145.559 49.5583 145.808 49.5306 146.577 49.1783C147.703 48.6622 148.236 47.8608 148.335 46.5372C148.396 45.7196 148.345 45.4274 148.037 44.8424C147.634 44.0751 146.916 43.5189 146.006 43.2703C145.688 43.1833 144.331 43.1118 142.991 43.1114L140.553 43.1104V46.3358ZM125.468 43.9258C125.328 44.2444 124.608 45.8552 123.868 47.5052L122.522 50.5053H125.721C128.218 50.5053 128.901 50.4622 128.836 50.3086C128.749 50.1022 126.112 44.2046 125.864 43.6611C125.735 43.3765 125.697 43.4017 125.468 43.9258Z" fill="white"/>
</svg>
