<svg xmlns="http://www.w3.org/2000/svg" width="95" height="21" viewBox="0 0 95 21" fill="none">
  <path d="M83.4006 7.26644C82.2582 6.49639 80.9251 6.04909 79.5449 5.97269C78.1646 5.89628 76.7894 6.19366 75.5673 6.83282C74.3451 7.47198 73.3223 8.42872 72.6089 9.60008C71.8955 10.7714 71.5186 12.1131 71.5186 13.4806C71.5186 14.8481 71.8955 16.1897 72.6089 17.3611C73.3223 18.5325 74.3451 19.4892 75.5673 20.1284C76.7894 20.7675 78.1646 21.0649 79.5449 20.9885C80.9251 20.9121 82.2582 20.4648 83.4006 19.6947V20.6053H87.7138V6.35495H83.4006V7.26644ZM79.4778 17.1471C78.7531 17.109 78.0557 16.8616 77.4717 16.4354C76.8877 16.0093 76.4428 15.4232 76.192 14.7495C75.9412 14.0759 75.8956 13.3443 76.0607 12.6453C76.2258 11.9462 76.5945 11.3104 77.1211 10.8165C77.6477 10.3225 78.3091 9.99215 79.0235 9.86616C79.7379 9.74017 80.474 9.82412 81.1407 10.1076C81.8074 10.3911 82.3755 10.8617 82.7746 11.4613C83.1738 12.0608 83.3865 12.7629 83.3865 13.4808C83.3589 14.4794 82.9318 15.4265 82.1989 16.1139C81.4661 16.8013 80.4874 17.1729 79.4778 17.1471V17.1471Z" fill="black"/>
  <path d="M24.2521 0.00390625H19.7383V20.6051H24.2521V0.00390625Z" fill="black"/>
  <path d="M63.8591 5.97094C63.0111 5.92136 62.1636 6.0765 61.3896 6.42299C60.6157 6.76948 59.9385 7.29692 59.4165 7.95988V6.35506H55.1211V20.6049H59.4681V13.1161C59.4347 12.6859 59.4954 12.2536 59.6459 11.8487C59.7965 11.4437 60.0334 11.0756 60.3406 10.7693C60.6478 10.463 61.0181 10.2258 61.4262 10.0737C61.8344 9.92158 62.2709 9.8582 62.706 9.88786C64.6017 9.88786 65.6913 11.0082 65.6913 13.0866V20.6049H69.9998V11.5427C69.9996 8.22623 67.3341 5.97094 63.8591 5.97094Z" fill="black"/>
  <path d="M37.8977 7.26644C36.7552 6.49639 35.4222 6.04909 34.0419 5.97269C32.6617 5.89628 31.2865 6.19366 30.0643 6.83282C28.8422 7.47198 27.8194 8.42872 27.106 9.60008C26.3926 10.7714 26.0156 12.1131 26.0156 13.4806C26.0156 14.8481 26.3926 16.1897 27.106 17.3611C27.8194 18.5325 28.8422 19.4892 30.0643 20.1284C31.2865 20.7675 32.6617 21.0649 34.0419 20.9885C35.4222 20.9121 36.7552 20.4648 37.8977 19.6947V20.6053H42.2108V6.35495H37.8977V7.26644ZM33.9748 17.1471C33.2501 17.1091 32.5525 16.8617 31.9685 16.4357C31.3844 16.0096 30.9394 15.4235 30.6886 14.7498C30.4377 14.0762 30.392 13.3446 30.5571 12.6455C30.7222 11.9465 31.0908 11.3106 31.6174 10.8166C32.1439 10.3226 32.8054 9.99218 33.5198 9.86616C34.2342 9.74013 34.9703 9.82406 35.6371 10.1076C36.3038 10.391 36.8719 10.8617 37.271 11.4612C37.6702 12.0607 37.8829 12.7629 37.8829 13.4808C37.8554 14.4794 37.4283 15.4264 36.6955 16.1138C35.9628 16.8012 34.9842 17.1728 33.9746 17.1471H33.9748Z" fill="black"/>
  <path d="M48.8828 8.2107V6.35458H44.4668V20.6051H48.8923V13.9523C48.8923 11.7074 51.3519 10.5008 53.0586 10.5008C53.0758 10.5008 53.0925 10.5025 53.1098 10.5027V6.35543C52.3101 6.3342 51.5157 6.48972 50.7844 6.81068C50.0532 7.13163 49.4035 7.60992 48.8828 8.2107V8.2107Z" fill="black"/>
  <path d="M92.293 15.5503C91.7576 15.5503 91.2342 15.7074 90.789 16.0017C90.3438 16.296 89.9969 16.7142 89.792 17.2036C89.5871 17.6929 89.5335 18.2314 89.638 18.7508C89.7424 19.2703 90.0003 19.7475 90.3789 20.122C90.7575 20.4965 91.2399 20.7515 91.765 20.8549C92.2902 20.9582 92.8345 20.9051 93.3291 20.7025C93.8238 20.4998 94.2466 20.1565 94.5441 19.7161C94.8415 19.2757 95.0003 18.758 95.0003 18.2283C95.0003 17.8766 94.9303 17.5283 94.7943 17.2034C94.6583 16.8785 94.4588 16.5832 94.2074 16.3346C93.956 16.0859 93.6576 15.8886 93.3291 15.754C93.0006 15.6195 92.6485 15.5502 92.293 15.5503V15.5503Z" fill="black"/>
  <path d="M16.6259 0H11.948C11.9553 1.85575 11.5213 3.68718 10.6811 5.34641C9.84085 7.00564 8.61798 8.44617 7.1112 9.55168L5.25806 10.9247L12.4391 20.6117H18.3429L11.7357 11.6983C13.2939 10.1663 14.5287 8.34317 15.3682 6.33488C16.2077 4.32658 16.6353 2.17321 16.6259 0V0Z" fill="black"/>
  <path d="M4.68625 0H0V20.6108H4.68625V0Z" fill="black"/>
</svg>
