<svg width="40" height="15" viewBox="0 0 40 15" fill="none" xmlns="http://www.w3.org/2000/svg">
<path d="M13.6211 6.76944C13.6211 6.31881 13.5848 5.86819 13.5123 5.42676H7.35742V7.97418H10.8836C10.7385 8.79266 10.2672 9.52838 9.57826 9.9882V11.6436H11.6813C12.9141 10.494 13.6211 8.79266 13.6211 6.76944Z" fill="white"/>
<path d="M7.35592 13.243C9.11447 13.243 10.6011 12.6544 11.6798 11.6428L9.57676 9.98742C8.98756 10.3921 8.23519 10.622 7.35592 10.622C5.65176 10.622 4.21048 9.45402 3.6938 7.89062H1.52734V9.60117C2.63323 11.8359 4.89033 13.243 7.35592 13.243Z" fill="white"/>
<path d="M3.69528 7.89093C3.4233 7.07245 3.4233 6.18039 3.69528 5.35271V3.65137H1.52848C0.594673 5.51825 0.594673 7.7254 1.52848 9.59227L3.69528 7.89093Z" fill="white"/>
<path d="M7.35592 2.62139C8.28958 2.603 9.18698 2.96166 9.85777 3.61461L11.7251 1.72014C10.5376 0.59817 8.9785 -0.0179927 7.35592 0.000400239C4.89033 0.000400239 2.63323 1.41665 1.52734 3.65139L3.6938 5.36193C4.21048 3.78934 5.65176 2.62139 7.35592 2.62139Z" fill="#FFFBFB"/>
<path fill-rule="evenodd" clip-rule="evenodd" d="M19.0551 11.533V6.86123H21.4663C22.4544 6.86123 23.2883 6.53015 23.9682 5.87721L24.1313 5.71167C25.3732 4.35979 25.2916 2.2538 23.9682 1.00309C23.3064 0.340943 22.4 -0.0177189 21.4663 0.000673982H17.5957V11.533H19.0551ZM19.0571 5.4449V1.41685H21.5049C22.0307 1.41685 22.5294 1.61918 22.9011 1.98703C23.6898 2.75954 23.708 4.04704 22.9464 4.84713C22.5747 5.24258 22.0489 5.46329 21.5049 5.4449H19.0571ZM30.938 4.25857C30.3125 3.6792 29.4605 3.38491 28.3818 3.38491C26.9949 3.38491 25.9524 3.89991 25.2635 4.92072L26.5507 5.7392C27.0221 5.04027 27.6657 4.69081 28.4815 4.69081C28.9982 4.69081 29.4967 4.88393 29.8865 5.2334C30.2672 5.56447 30.4848 6.04269 30.4848 6.54849V6.88876C29.9228 6.57608 29.2157 6.41054 28.3455 6.41054C27.3303 6.41054 26.5144 6.64965 25.9071 7.13706C25.2998 7.62448 24.9916 8.26823 24.9916 9.08671C24.9735 9.83162 25.2907 10.5398 25.8527 11.018C26.4238 11.533 27.149 11.7905 28.001 11.7905C29.0072 11.7905 29.8049 11.3398 30.4122 10.4386H30.4757V11.533H31.8717V6.66805C31.8717 5.64724 31.5635 4.83795 30.938 4.25857ZM26.9793 10.0799C26.6801 9.85917 26.4988 9.50051 26.4988 9.11426C26.4988 8.68203 26.6983 8.32336 27.0881 8.03827C27.487 7.75318 27.9857 7.60604 28.575 7.60604C29.3909 7.59684 30.0255 7.78077 30.4788 8.14863C30.4788 8.77399 30.2341 9.31658 29.7536 9.7764C29.3184 10.2178 28.7291 10.4661 28.1126 10.4661C27.7046 10.4753 27.3057 10.3374 26.9793 10.0799ZM35.0078 15L39.8846 3.6424H38.2983L36.0412 9.30741H36.014L33.7025 3.6424H32.1162L35.316 11.0271L33.5031 15H35.0078Z" fill="white"/>
</svg>
