<svg width="65" height="15" viewBox="0 0 65 15" fill="none" xmlns="http://www.w3.org/2000/svg">
<path d="M24.6385 3.35474H21.123C20.8825 3.35474 20.6778 3.52361 20.6402 3.75344L19.2184 12.4703C19.1935 12.6249 19.3028 12.7697 19.4627 12.794C19.4777 12.7962 19.4929 12.7975 19.5084 12.7975H21.1868C21.4275 12.7975 21.6322 12.6281 21.6695 12.3983L22.0531 10.0471C22.0902 9.81754 22.2949 9.64817 22.5354 9.64793H23.6483C25.9642 9.64793 27.3006 8.5644 27.6497 6.41702C27.807 5.47754 27.6563 4.73938 27.2015 4.22244C26.7017 3.65487 25.8155 3.35449 24.639 3.35449L24.6385 3.35474ZM25.044 6.53845C24.8518 7.75815 23.8878 7.75815 22.9559 7.75815H22.4253L22.7975 5.48024C22.8201 5.34259 22.9426 5.24107 23.0868 5.24107H23.3298C23.9646 5.24107 24.5635 5.24107 24.8729 5.5911C25.0574 5.7998 25.1139 6.11001 25.0435 6.53845H25.044ZM35.1472 6.49912H33.4638C33.3197 6.49912 33.1969 6.60064 33.1745 6.73829L33.1 7.19353L32.9823 7.02859C32.6178 6.51706 31.8051 6.34623 30.9939 6.34623C29.1335 6.34623 27.5444 7.70874 27.235 9.61991C27.0741 10.5732 27.3029 11.4849 27.8622 12.1205C28.3752 12.705 29.1094 12.9486 29.9826 12.9486C31.4817 12.9486 32.3127 12.0168 32.3127 12.0168L32.2377 12.4691C32.2121 12.6237 32.3211 12.769 32.4808 12.7935C32.496 12.796 32.5113 12.797 32.5265 12.797H34.0429C34.2837 12.797 34.4883 12.6276 34.5257 12.3978L35.4355 6.82629C35.4612 6.67242 35.3526 6.52739 35.1935 6.50281C35.1783 6.50035 35.1627 6.49912 35.1472 6.49912ZM32.8006 9.66735C32.6381 10.5972 31.8747 11.2216 30.9011 11.2216C30.4122 11.2216 30.0215 11.0699 29.7706 10.7826C29.5217 10.4972 29.4271 10.0911 29.5065 9.63883C29.6582 8.7168 30.4343 8.07205 31.393 8.07205C31.8712 8.07205 32.2596 8.22568 32.5156 8.51549C32.7721 8.80825 32.8738 9.21678 32.8003 9.6671L32.8006 9.66735ZM44.1134 6.49912H42.4216C42.2597 6.49937 42.1081 6.57704 42.0171 6.70634L39.684 10.0297L38.6948 6.83612C38.6325 6.63604 38.4421 6.49912 38.226 6.49912H36.5635C36.4015 6.49863 36.2701 6.62522 36.2696 6.7818C36.2696 6.81326 36.2749 6.84424 36.2854 6.87398L38.1488 12.1616L36.397 14.5528C36.3032 14.6804 36.3342 14.8573 36.4661 14.9478C36.5157 14.982 36.5752 15.0002 36.6359 15.0002H38.3257C38.4858 15.0002 38.6358 14.9247 38.7271 14.7974L44.3539 6.94379C44.4462 6.81523 44.4131 6.63874 44.2802 6.54951C44.2311 6.51657 44.1729 6.49887 44.1131 6.49887L44.1134 6.49912Z" fill="white"/>
<path d="M49.7167 3.35498H46.2007C45.9604 3.35498 45.7558 3.5241 45.7184 3.75369L44.2966 12.4705C44.2714 12.6249 44.3802 12.7697 44.5396 12.794C44.5549 12.7962 44.5701 12.7975 44.5854 12.7975H46.3898C46.5581 12.7975 46.701 12.6787 46.7271 12.5182L47.1306 10.0474C47.1677 9.81778 47.3723 9.64842 47.6128 9.64817H48.7253C51.0417 9.64817 52.3776 8.56465 52.7271 6.41727C52.885 5.47779 52.7332 4.73962 52.2784 4.22269C51.7794 3.65512 50.8935 3.35474 49.717 3.35474L49.7167 3.35498ZM50.1222 6.5387C49.9305 7.7584 48.9665 7.7584 48.0341 7.7584H47.504L47.8767 5.48049C47.8988 5.34284 48.0213 5.24132 48.1655 5.24132H48.4085C49.0428 5.24132 49.6422 5.24132 49.9516 5.59135C50.1362 5.80004 50.1921 6.11025 50.1217 6.5387H50.1222ZM60.2249 6.49937H58.5425C58.3984 6.49888 58.2756 6.60064 58.2537 6.73854L58.1793 7.19378L58.0611 7.02884C57.6965 6.51731 56.8843 6.34647 56.0731 6.34647C54.2127 6.34647 52.6244 7.70899 52.3148 9.62015C52.1544 10.5734 52.3821 11.4851 52.9414 12.1208C53.4554 12.7053 54.1886 12.9489 55.0618 12.9489C56.5609 12.9489 57.392 12.017 57.392 12.017L57.317 12.4693C57.2913 12.6239 57.4003 12.7692 57.56 12.7938C57.5755 12.7962 57.5913 12.7975 57.6068 12.7972H59.1227C59.3631 12.7972 59.5675 12.6279 59.6049 12.398L60.5152 6.82654C60.5399 6.67168 60.4301 6.52665 60.2699 6.50281C60.2549 6.5006 60.2399 6.49937 60.2249 6.49961V6.49937ZM57.8783 9.66759C57.7168 10.5975 56.9524 11.2218 55.9788 11.2218C55.4909 11.2218 55.0992 11.0702 54.8483 10.7828C54.5994 10.4974 54.5059 10.0914 54.5842 9.63908C54.7369 8.71705 55.512 8.0723 56.4707 8.0723C56.9489 8.0723 57.3373 8.22593 57.5933 8.51573C57.8508 8.80849 57.9525 9.21703 57.878 9.66735L57.8783 9.66759ZM62.2096 3.59416L60.7667 12.4705C60.7415 12.6249 60.8503 12.7697 61.0097 12.794C61.0249 12.7962 61.0402 12.7975 61.0555 12.7975H62.506C62.747 12.7975 62.9516 12.6284 62.9888 12.3983L64.4116 3.68191C64.4368 3.5273 64.3277 3.38227 64.1678 3.35793C64.1528 3.35572 64.1378 3.35449 64.1226 3.35449H62.4981C62.354 3.35498 62.2317 3.4565 62.2093 3.59416H62.2096Z" fill="#FCFEFF"/>
<path d="M4.62128 14.4909L4.89024 12.8395L4.2913 12.826H1.43164L3.41884 0.64202C3.43104 0.565082 3.49968 0.508301 3.58027 0.508792H8.40222C10.003 0.508792 11.1076 0.830801 11.6844 1.46671C11.9549 1.76487 12.127 2.07656 12.2104 2.41946C12.2978 2.77933 12.2993 3.20924 12.2139 3.7338L12.2078 3.77215V4.10817L12.4783 4.25639C12.6847 4.35742 12.8703 4.49433 13.0259 4.66001C13.2572 4.91491 13.4067 5.23913 13.47 5.62333C13.5353 6.01859 13.5137 6.48882 13.4067 7.021C13.2834 7.63331 13.0838 8.16671 12.8146 8.60302C12.5769 8.9941 12.2574 9.33258 11.8766 9.59707C11.5189 9.84263 11.0936 10.029 10.6131 10.1484C10.1474 10.2657 9.61635 10.3249 9.03394 10.3249H8.65872C8.39027 10.3249 8.1297 10.4183 7.92505 10.586C7.72067 10.7553 7.58517 10.9891 7.54272 11.246L7.5145 11.3947L7.03962 14.305L7.01801 14.412C7.01242 14.4459 7.00251 14.4626 6.98827 14.4742C6.97429 14.4852 6.957 14.4914 6.93895 14.4916H4.62204L4.62128 14.4909Z" fill="white"/>
<path d="M12.7333 3.81055C12.7188 3.89953 12.7025 3.99048 12.684 4.08389C12.0482 7.24081 9.87261 8.33121 7.09404 8.33121H5.67933C5.33945 8.33121 5.0532 8.56989 5.00032 8.89387L4.27607 13.3356L4.07091 14.5947C4.03965 14.7857 4.17438 14.9648 4.3719 14.9951C4.39046 14.998 4.40927 14.9993 4.42834 14.9993H6.93744C7.23462 14.9993 7.48705 14.7906 7.53383 14.5072L7.55849 14.384L8.03082 11.4852L8.06107 11.3261C8.10734 11.0417 8.36028 10.8331 8.65746 10.8331H9.03268C11.4637 10.8331 13.3668 9.87882 13.923 7.11716C14.1554 5.96358 14.0351 5.00026 13.4202 4.32281C13.2252 4.11314 12.9926 3.93984 12.7333 3.81079V3.81055Z" fill="#FCFEFF"/>
<path d="M12.0721 3.55391C11.869 3.49713 11.6626 3.45289 11.4536 3.42118C11.041 3.35997 10.6238 3.33047 10.2064 3.33318H6.427C6.12982 3.33318 5.87688 3.54236 5.83112 3.82627L5.02704 8.75006L5.00391 8.89361C5.05577 8.56964 5.34405 8.33071 5.68291 8.33096H7.09762C9.87619 8.33096 12.0515 7.23981 12.6876 4.08363C12.7066 3.99022 12.7226 3.89928 12.7369 3.81029C12.5691 3.72524 12.3942 3.65396 12.214 3.59718C12.1667 3.58194 12.1194 3.56768 12.0716 3.55391H12.0721Z" fill="white"/>
<path d="M5.829 3.82675C5.87425 3.54259 6.12745 3.33316 6.42488 3.33415H10.2043C10.652 3.33415 11.0699 3.36241 11.4515 3.42215C11.7095 3.46148 11.9642 3.51998 12.2128 3.59765C12.4005 3.65788 12.5748 3.72892 12.7358 3.81077C12.9249 2.64416 12.7342 1.84995 12.0819 1.13072C11.3622 0.33897 10.0642 0 8.40343 0H3.58148C3.24211 0 2.95281 0.23868 2.90044 0.563147L0.89189 12.8727C0.856046 13.0913 1.01035 13.2965 1.23635 13.3312C1.25771 13.3344 1.27906 13.3361 1.30067 13.3361H4.27753L5.02492 8.75078L5.829 3.82699V3.82675Z" fill="white"/>
</svg>
