<svg width="37" height="12" viewBox="0 0 37 12" fill="none" xmlns="http://www.w3.org/2000/svg">
<path fill-rule="evenodd" clip-rule="evenodd" d="M9.43454 11.9065H6.27347L3.90306 2.59729C3.79055 2.16906 3.55166 1.79049 3.20025 1.61206C2.32329 1.16366 1.35694 0.806809 0.302734 0.62683V0.268423H5.39497C6.09777 0.268423 6.62488 0.806809 6.71273 1.43208L7.94263 8.14716L11.1022 0.268423H14.1754L9.43454 11.9065ZM15.9326 11.9065H12.9473L15.4055 0.268423H18.3909L15.9326 11.9065ZM22.2515 3.49252C22.3394 2.8657 22.8665 2.50729 23.4814 2.50729C24.4478 2.4173 25.5005 2.59728 26.379 3.04413L26.9061 0.538385C26.0276 0.179979 25.0612 0 24.1842 0C21.2867 0 19.1783 1.61205 19.1783 3.84938C19.1783 5.55142 20.6718 6.44511 21.726 6.9835C22.8665 7.52033 23.3057 7.87874 23.2179 8.41557C23.2179 9.22082 22.3394 9.57923 21.4624 9.57923C20.4082 9.57923 19.354 9.31081 18.3892 8.86241L17.8621 11.3697C18.9163 11.8166 20.0568 11.9965 21.111 11.9965C24.36 12.085 26.379 10.4745 26.379 8.05716C26.379 5.01304 22.2515 4.83461 22.2515 3.49252ZM36.8285 11.9065L34.458 0.268423H31.9119C31.3848 0.268423 30.8577 0.62683 30.682 1.16366L26.2926 11.9065H29.3658L29.9792 10.2061H33.7552L34.1066 11.9065H36.8285ZM32.3504 3.40261L33.2274 7.78883H30.7691L32.3504 3.40261Z" fill="#F7F9FF"/>
</svg>
