<svg width="24" height="24" viewBox="0 0 24 24" fill="none" xmlns="http://www.w3.org/2000/svg">
<path d="M4.14758 0.202733C4.57755 0.0684744 5.02364 0 5.47275 0C7.63145 0 9.23078 1.90087 9.23077 4.05054L9.23077 8.87254C9.23078 11.0222 7.63145 12.9231 5.47275 12.9231C5.02363 12.9231 4.57755 12.8546 4.14758 12.7203L3.81891 12.6177C3.70669 12.5827 3.59628 12.5438 3.48778 12.5013C5.20014 15.9788 8.02121 18.7999 11.4987 20.5122C11.4562 20.4037 11.4173 20.2933 11.3823 20.1811L11.2797 19.8524C11.1454 19.4224 11.0769 18.9764 11.0769 18.5273C11.0769 16.3686 12.9778 14.7692 15.1275 14.7692H19.9495C22.0991 14.7692 24 16.3686 24 18.5273C24 18.9764 23.9315 19.4225 23.7973 19.8524L23.6946 20.1811C23.0968 22.0957 21.3868 23.4822 19.3413 23.8426C18.1504 24.0525 16.9265 24.0525 15.7356 23.8426C15.6887 23.8343 15.642 23.8256 15.5955 23.8162C7.79046 22.3146 1.68539 16.2095 0.183761 8.40439C0.174438 8.35791 0.165647 8.31125 0.157394 8.26441C-0.0524651 7.07347 -0.0524645 5.84961 0.157395 4.65866C0.517833 2.61319 1.90435 0.903182 3.81891 0.305361L4.14758 0.202733Z" fill="#333333"/>
<path d="M13.4837 2.1215C15.8487 1.44764 18.4242 2.01128 20.2064 3.79357C21.9887 5.57587 22.5524 8.15127 21.8785 10.5163C21.7388 11.0066 22.023 11.5173 22.5133 11.657C23.0036 11.7967 23.5143 11.5125 23.654 11.0222C24.497 8.06368 23.8042 4.78044 21.5119 2.48815C19.2196 0.195853 15.9363 -0.496951 12.9778 0.346015C12.4875 0.485711 12.2033 0.996415 12.343 1.4867C12.4827 1.97699 12.9934 2.2612 13.4837 2.1215Z" fill="#333333"/>
<path d="M15.7949 5.47648C16.4178 5.35243 17.2067 5.5616 17.8226 6.17745C18.4384 6.79331 18.6476 7.58222 18.5235 8.20508C18.424 8.70506 18.7485 9.1911 19.2485 9.29068C19.7485 9.39027 20.2345 9.06568 20.3341 8.5657C20.5888 7.28714 20.142 5.88601 19.128 4.87203C18.114 3.85804 16.7129 3.41123 15.4343 3.6659C14.9343 3.76548 14.6098 4.25152 14.7093 4.7515C14.8089 5.25148 15.295 5.57607 15.7949 5.47648Z" fill="#333333"/>
</svg>
