<svg width="24" height="24" viewBox="0 0 24 24" fill="none" xmlns="http://www.w3.org/2000/svg">
<path d="M23.7296 11.7095C24.0901 11.3466 24.0901 10.7583 23.7296 10.3955L16.0886 2.70428C15.3067 1.91719 14.6547 1.26085 14.0675 0.809874C13.4476 0.333868 12.7928 0 12 0C11.2072 0 10.5524 0.333868 9.93254 0.809876C9.34532 1.26085 8.6933 1.91719 7.91139 2.70428L0.270363 10.3955C-0.090121 10.7583 -0.090121 11.3466 0.270363 11.7095C0.630847 12.0723 1.21531 12.0723 1.57579 11.7095L2.1046 11.1772V15.2442C2.1046 19.2364 4.83458 22.7035 8.69594 23.6152C10.8691 24.1283 13.1308 24.1283 15.304 23.6152C19.1654 22.7035 21.8954 19.2364 21.8954 15.2442V11.1771L22.4242 11.7095C22.7847 12.0723 23.3692 12.0723 23.7296 11.7095Z" fill="#333333"/>
</svg>
