<svg width="26" height="24" viewBox="0 0 26 24" fill="none" xmlns="http://www.w3.org/2000/svg">
<path fill-rule="evenodd" clip-rule="evenodd" d="M8.24139 0.588826C4.60867 1.39378 1.74472 4.18645 0.847842 7.79833C0.162699 10.5575 0.162698 13.4425 0.847841 16.2017C1.74472 19.8136 4.60867 22.6062 8.24139 23.4112L8.84656 23.5453C11.5828 24.1516 14.4185 24.1516 17.1547 23.5453L17.7599 23.4112C21.3926 22.6062 24.2566 19.8136 25.1535 16.2017C25.8386 13.4425 25.8386 10.5575 25.1535 7.79834C24.2566 4.18645 21.3926 1.39378 17.7599 0.588824L17.1548 0.454732C14.4185 -0.151577 11.5828 -0.151577 8.84656 0.454731L8.24139 0.588826ZM8.38019 9.08415C7.98483 8.80169 7.43538 8.89328 7.15298 9.28874C6.87057 9.68419 6.96215 10.2338 7.35751 10.5162L10.7849 12.9649C12.1104 13.9119 13.891 13.9119 15.2165 12.9649L18.6439 10.5162C19.0392 10.2338 19.1308 9.68419 18.8484 9.28874C18.566 8.89328 18.0165 8.80169 17.6212 9.08415L14.1938 11.5328C13.4801 12.0427 12.5213 12.0427 11.8076 11.5328L8.38019 9.08415Z" fill="#333333"/>
</svg>
